<?xml version="1.0" standalone="no"?>
<!DOCTYPE svg PUBLIC "-//W3C//DTD SVG 20010904//EN"
 "http://www.w3.org/TR/2001/REC-SVG-20010904/DTD/svg10.dtd">
<svg version="1.0" xmlns="http://www.w3.org/2000/svg"
 width="300.000000pt" height="300.000000pt" viewBox="0 0 300.000000 300.000000"
 preserveAspectRatio="xMidYMid meet">
<metadata>
Created by potrace 1.14, written by Peter Selinger 2001-2017
</metadata>
<g transform="translate(0.000000,300.000000) scale(0.100000,-0.100000)"
fill="#000000" stroke="none">
<path d="M1691 2529 c-56 -27 -199 -115 -317 -195 -119 -79 -226 -144 -238
-144 -33 0 -164 -38 -210 -62 -64 -33 -125 -87 -162 -145 -19 -29 -34 -56 -34
-59 0 -4 30 26 67 65 43 47 86 82 122 100 58 29 187 68 196 59 7 -6 -57 -58
-147 -121 -73 -51 -200 -117 -263 -137 -22 -7 -43 -18 -47 -24 -4 -6 -8 3 -8
20 0 18 -8 55 -17 83 -28 87 -129 161 -221 161 -49 0 -122 -32 -160 -71 -145
-144 -55 -380 153 -396 l65 -6 36 -66 35 -66 -13 -75 c-17 -98 -14 -270 6
-395 29 -174 27 -170 109 -209 216 -104 539 -165 802 -153 300 15 634 126 942
312 l33 20 0 93 c0 102 -18 236 -54 403 -13 60 -19 109 -15 109 15 0 48 62 65
123 l17 57 44 0 c106 0 187 101 163 204 -34 149 -215 185 -311 62 -26 -33 -36
-110 -21 -154 8 -24 7 -30 -10 -41 -11 -7 -21 -11 -22 -9 -2 2 -20 53 -40 113
-40 115 -120 282 -184 381 -47 73 -146 180 -183 200 -45 23 -71 17 -178 -37z
m-1318 -492 c-46 -17 -57 -31 -68 -88 -11 -53 -28 -66 -33 -25 -5 41 24 95 60
111 18 8 42 14 53 14 14 0 10 -4 -12 -12z m-58 -197 c0 -20 -6 -26 -26 -28
-30 -4 -46 22 -28 45 20 23 54 12 54 -17z m2010 9 c-4 -5 -16 -9 -28 -9 -21 1
-21 1 -3 15 20 15 41 11 31 -6z m-761 -38 c3 -5 -3 -11 -15 -14 -16 -4 -18 -3
-8 9 13 16 16 17 23 5z m581 -21 c3 -5 2 -10 -4 -10 -5 0 -13 5 -16 10 -3 6
-2 10 4 10 5 0 13 -4 16 -10z m-606 -235 c0 -5 -27 42 -59 105 -32 63 -59 120
-59 125 0 6 27 -42 59 -105 32 -63 59 -119 59 -125z m-34 165 c-5 -8 -11 -8
-17 -2 -6 6 -7 16 -3 22 5 8 11 8 17 2 6 -6 7 -16 3 -22z m542 -32 c-3 -8 -6
-5 -6 6 -1 11 2 17 5 13 3 -3 4 -12 1 -19z m-400 -30 c-3 -8 -6 -5 -6 6 -1 11
2 17 5 13 3 -3 4 -12 1 -19z m690 -10 c-3 -7 -5 -2 -5 12 0 14 2 19 5 13 2 -7
2 -19 0 -25z m-669 -78 c0 -22 -1 -22 -8 5 -4 17 -8 39 -8 50 0 16 2 15 8 -5
4 -14 8 -36 8 -50z m311 -179 c30 -19 -41 -32 -89 -15 -24 8 -24 8 10 15 52
10 64 10 79 0z m180 -177 c6 -15 10 -28 9 -29 -15 -12 -166 -76 -210 -89 -121
-35 -153 -37 -203 -15 -25 11 -45 21 -45 23 0 2 25 -1 55 -7 31 -5 76 -6 100
-2 60 9 172 66 214 109 41 43 64 45 80 10z m21 -63 c0 -30 -163 -97 -328 -134
-12 -3 -20 -1 -17 3 3 5 29 14 58 20 28 6 102 37 162 70 61 32 113 58 118 59
4 1 7 -7 7 -18z m-14 -144 c-10 -25 -30 -45 -68 -66 -58 -34 -158 -74 -165
-67 -8 8 50 55 76 61 41 10 141 57 141 66 0 4 -19 -1 -42 -11 -63 -27 -205
-67 -271 -75 -53 -7 -57 -6 -57 13 0 27 17 38 68 46 45 7 204 60 282 94 l45
19 3 -22 c2 -13 -4 -39 -12 -58z"/>
</g>
</svg>
